<svg xmlns="http://www.w3.org/2000/svg" width="626.799" height="91.912" viewBox="0 0 626.799 91.912">
  <path id="Path_130402" data-name="Path 130402" d="M7.37,88.631V87.291a2.3,2.3,0,0,1,2.238-2.348h33.1a2.172,2.172,0,0,0,1.582-.678,2.392,2.392,0,0,0,.656-1.655V49.666a2.393,2.393,0,0,1,.646-1.659,2.173,2.173,0,0,1,1.578-.689H61.907a2.3,2.3,0,0,0,2.238-2.348V10.309A2.392,2.392,0,0,1,64.8,8.655a2.172,2.172,0,0,1,1.582-.678H78.451a2.172,2.172,0,0,1,1.582.678,2.392,2.392,0,0,1,.656,1.655V45.015a2.3,2.3,0,0,0,2.2,2.348h7.174A2.3,2.3,0,0,0,92.3,45.015V35.639a2.3,2.3,0,0,1,2.238-2.348h1.334a2.3,2.3,0,0,0,2.238-2.348V28.129a2.392,2.392,0,0,1,.656-1.655,2.172,2.172,0,0,1,1.582-.678h33.546a2.172,2.172,0,0,1,1.582.678,2.392,2.392,0,0,1,.656,1.655v2.814a2.393,2.393,0,0,0,.646,1.659,2.173,2.173,0,0,0,1.578.689H139.7a2.3,2.3,0,0,1,2.238,2.348v9.376a2.393,2.393,0,0,0,.646,1.659,2.173,2.173,0,0,0,1.578.689h17.892a2.173,2.173,0,0,0,1.578-.689,2.393,2.393,0,0,0,.646-1.659V21.07a2.3,2.3,0,0,1,2.238-2.348h7.174a2.3,2.3,0,0,1,2.224,2.348V45.015a2.393,2.393,0,0,0,.646,1.659,2.173,2.173,0,0,0,1.578.689h6.715a2.173,2.173,0,0,0,1.578-.689,2.393,2.393,0,0,0,.646-1.659V10.309a2.392,2.392,0,0,1,.657-1.655,2.172,2.172,0,0,1,1.582-.678h.445A2.3,2.3,0,0,0,192,5.629V4.7a2.3,2.3,0,0,1,2.238-2.348h33.976A2.3,2.3,0,0,1,230.455,4.7v.933a2.3,2.3,0,0,0,2.238,2.348h.445a2.158,2.158,0,0,1,1.577.679,2.377,2.377,0,0,1,.647,1.654V21.07a2.3,2.3,0,0,0,2.238,2.348h8.494a2.3,2.3,0,0,1,2.238,2.348V37.009a2.3,2.3,0,0,0,2.238,2.348h20.087A2.3,2.3,0,0,1,272.9,41.7v4.7a2.378,2.378,0,0,0,.647,1.685,2.157,2.157,0,0,0,1.606.678h33.087a2.172,2.172,0,0,0,1.582-.678,2.392,2.392,0,0,0,.656-1.655V21.386a2.3,2.3,0,0,1,2.238-2.348h10.718a2.172,2.172,0,0,0,1.582-.678,2.392,2.392,0,0,0,.656-1.655V13.425a2.3,2.3,0,0,1,2.238-2.348h3.2a2.3,2.3,0,0,1,2.238,2.348v3.281A2.392,2.392,0,0,0,334,18.361a2.172,2.172,0,0,0,1.582.678H346.3a2.3,2.3,0,0,1,2.238,2.348v5.343a2.3,2.3,0,0,0,2.238,2.348h8.049a2.3,2.3,0,0,1,2.238,2.348V38.95a2.393,2.393,0,0,0,.646,1.659,2.173,2.173,0,0,0,1.578.689H408a2.3,2.3,0,0,0,2.238-2.348V6.1a2.3,2.3,0,0,1,2.238-2.348h49.616A2.3,2.3,0,0,1,464.33,6.1V16.886a2.392,2.392,0,0,0,.656,1.655,2.172,2.172,0,0,0,1.582.678h32.556a2.3,2.3,0,0,1,2.238,2.348V30.01a2.3,2.3,0,0,0,2.238,2.348H517a2.3,2.3,0,0,0,2.238-2.348V7.028a2.391,2.391,0,0,1,.656-1.655,2.172,2.172,0,0,1,1.582-.678h2.683A2.3,2.3,0,0,0,526.4,2.348h0A2.3,2.3,0,0,1,528.638,0H540.26a2.173,2.173,0,0,1,1.578.689,2.392,2.392,0,0,1,.646,1.659h0A2.3,2.3,0,0,0,544.722,4.7h1.794a2.172,2.172,0,0,1,1.582.678,2.391,2.391,0,0,1,.656,1.655V30.01a2.393,2.393,0,0,0,.646,1.659,2.173,2.173,0,0,0,1.578.689h13.86a2.3,2.3,0,0,1,2.238,2.348V46.9a2.3,2.3,0,0,0,2.21,2.348h13.86a2.173,2.173,0,0,0,1.578-.689,2.393,2.393,0,0,0,.646-1.659V44.082a2.3,2.3,0,0,1,2.238-2.348h6.256a2.3,2.3,0,0,1,2.238,2.348V57.191a2.3,2.3,0,0,0,2.238,2.348h17.433a2.183,2.183,0,0,1,1.625.671,2.407,2.407,0,0,1,.671,1.692V80.654A2.3,2.3,0,0,0,620.309,83h11.622a2.3,2.3,0,0,1,2.238,2.348v4.214a2.3,2.3,0,0,1-2.238,2.348H9.608A2.3,2.3,0,0,1,7.37,89.564Z" transform="translate(-7.37 0)" fill="#00afaa"/>
</svg>
