<svg xmlns="http://www.w3.org/2000/svg" width="643.795" height="80.614" viewBox="0 0 643.795 80.614">
    <path id="Path_130403" data-name="Path 130403" d="M635.034,88.557H1.434A1.479,1.479,0,0,1,0,87.037V77.306a1.479,1.479,0,0,1,1.434-1.52H21.94a1.485,1.485,0,0,0,1.362-1.52V67.271a1.485,1.485,0,0,1,1.362-1.52H39.147a1.479,1.479,0,0,0,1.362-1.444V36.862a1.479,1.479,0,0,1,1.362-1.444H53.444a1.479,1.479,0,0,1,1.362,1.444V64.23a1.474,1.474,0,0,0,1.434,1.444h13.35a1.474,1.474,0,0,0,1.434-1.444V52.69a1.479,1.479,0,0,1,1.434-1.52h.473a1.306,1.306,0,0,0,1.042-.415,1.479,1.479,0,0,0,.392-1.1v-.593a1.479,1.479,0,0,1,1.434-1.52H93.208a1.479,1.479,0,0,1,1.434,1.52v.593a1.479,1.479,0,0,0,1.434,1.52h0a1.485,1.485,0,0,1,1.362,1.52V64a1.474,1.474,0,0,0,1.434,1.444H102.4A1.474,1.474,0,0,0,103.834,64V45.574A1.479,1.479,0,0,1,105.2,44.13h7.543a1.474,1.474,0,0,1,1.434,1.444v19.37a1.479,1.479,0,0,0,.392,1.1,1.306,1.306,0,0,0,1.042.415h.387a1.479,1.479,0,0,0,1.434-1.52V60.733a1.479,1.479,0,0,1,1.434-1.52h6.654a1.485,1.485,0,0,0,1.362-1.52V48.418a1.479,1.479,0,0,1,1.434-1.52h11.128a1.479,1.479,0,0,1,1.434,1.52V62.573a1.479,1.479,0,0,0,1.434,1.52h12.017a1.479,1.479,0,0,0,1.434-1.52V30.887a1.479,1.479,0,0,1,1.362-1.444H162A1.474,1.474,0,0,0,163.43,28V26.219a1.473,1.473,0,0,1,.419-1.054,1.3,1.3,0,0,1,1.015-.39h36.581a1.474,1.474,0,0,1,1.434,1.444v3.193a1.479,1.479,0,0,0,1.434,1.52h3.069a1.479,1.479,0,0,1,1.434,1.52v32.02a1.481,1.481,0,0,0,.368,1.076,1.312,1.312,0,0,0,.994.445h5.306a1.312,1.312,0,0,0,.994-.445,1.481,1.481,0,0,0,.368-1.076V58.848a1.479,1.479,0,0,1,1.434-1.52h4.861a1.479,1.479,0,0,1,1.434,1.52v5.626a1.485,1.485,0,0,0,1.362,1.52h5.32a1.485,1.485,0,0,0,1.362-1.52v-9.9a1.474,1.474,0,0,1,1.434-1.444H247.79a1.479,1.479,0,0,1,1.362,1.444V68.792a1.485,1.485,0,0,0,1.362,1.52h14.77a1.479,1.479,0,0,0,1.434-1.52V12.885a1.479,1.479,0,0,1,1.434-1.52h2.624a1.309,1.309,0,0,0,.968-.419,1.475,1.475,0,0,0,.395-1.026V9.57a1.479,1.479,0,0,1,1.434-1.52h5.736a1.485,1.485,0,0,1,1.362,1.52v.9a1.479,1.479,0,0,0,1.362,1.444h1.893a1.479,1.479,0,0,1,1.434,1.52V57.373a1.479,1.479,0,0,0,1.362,1.444h15.128a1.479,1.479,0,0,0,1.362-1.444V33.73a1.479,1.479,0,0,1,1.434-1.52h15.128a1.479,1.479,0,0,1,1.434,1.52V47.414a1.479,1.479,0,0,0,1.434,1.52h37.929a1.479,1.479,0,0,1,1.434,1.52V65.082a1.481,1.481,0,0,0,.368,1.076,1.312,1.312,0,0,0,.994.445h15.143a1.479,1.479,0,0,0,1.434-1.52V25.2a1.479,1.479,0,0,1,1.362-1.444h17.824a1.479,1.479,0,0,1,1.362,1.444V55.944a1.479,1.479,0,0,0,1.434,1.52h11.558a1.485,1.485,0,0,1,1.362,1.52V65.9a1.474,1.474,0,0,0,1.434,1.444h11.558A1.479,1.479,0,0,0,429.2,65.9V60.262a1.479,1.479,0,0,1,1.434-1.52h3.857a1.479,1.479,0,0,0,1.362-1.444V37.531a1.485,1.485,0,0,1,1.362-1.52h5.736a1.474,1.474,0,0,0,1.434-1.444V31.374a1.485,1.485,0,0,1,1.362-1.52h34.415a1.485,1.485,0,0,1,1.362,1.52v3.254a1.474,1.474,0,0,0,1.434,1.444h5.32a1.485,1.485,0,0,1,1.362,1.52V60.216a1.485,1.485,0,0,0,1.362,1.52h4.417a1.309,1.309,0,0,1,.967.419,1.474,1.474,0,0,1,.395,1.026v4.683a1.479,1.479,0,0,0,1.362,1.444h6.209a1.309,1.309,0,0,0,.968-.419,1.475,1.475,0,0,0,.395-1.026V52.69a1.479,1.479,0,0,1,1.434-1.52h37.756a1.485,1.485,0,0,1,1.362,1.52v6.979a1.485,1.485,0,0,0,1.362,1.52H580.2a1.312,1.312,0,0,1,.994.445,1.481,1.481,0,0,1,.368,1.076v9.9a1.479,1.479,0,0,0,1.362,1.444h16.935a1.479,1.479,0,0,0,1.362-1.444V68.32a1.474,1.474,0,0,1,1.434-1.444h8.891a1.309,1.309,0,0,1,.968.419,1.475,1.475,0,0,1,.395,1.026v4.212a1.479,1.479,0,0,0,1.362,1.444h12.017a1.485,1.485,0,0,1,1.362,1.52v5.641a1.479,1.479,0,0,0,1.434,1.52h13.35A1.479,1.479,0,0,1,643.8,84.1v3.041a1.485,1.485,0,0,1-1.362,1.52Z" transform="translate(0 -8.05)" fill="#00a09c"/>
</svg>
